<?xml version="1.0" encoding="utf-8"?>
<!-- Generator: Adobe Illustrator 23.0.3, SVG Export Plug-In . SVG Version: 6.00 Build 0)  -->
<svg version="1.1" id="Layer_1" xmlns="http://www.w3.org/2000/svg" xmlns:xlink="http://www.w3.org/1999/xlink" x="0px" y="0px"
	 viewBox="0 0 774 191" style="enable-background:new 0 0 774 191;" xml:space="preserve">
<style type="text/css">
	.st0{fill:#03002B;}
</style>
<g>
	<polygon class="st0" points="422.7,125.4 400.5,66.7 390.9,66.7 390.9,135.5 398.3,135.5 398.3,79.1 419.7,135.5 426.5,135.5 
		447.4,79.1 447.4,135.5 454.8,135.5 454.8,66.7 445.2,66.7 	"/>
	<path class="st0" d="M303.5,105.9c-1.1-1.5-2.6-2.9-4.4-4c-1.8-1.2-4.1-2.2-6.7-2.9c3.5-1.8,6.2-4.1,8.1-7c1.9-2.8,2.8-5.9,2.8-9.2
		c0-2.2-0.5-4.3-1.4-6.2c-0.9-1.9-2.3-3.6-4-5.1c-1.7-1.5-3.8-2.6-6.2-3.5c-2.4-0.9-5.2-1.3-8.2-1.3h-27.1v68.8h30.3
		c2.6,0,5.2-0.5,7.6-1.5c2.4-1,4.5-2.4,6.4-4.2c1.8-1.8,3.3-3.8,4.4-6.1c1.1-2.3,1.6-4.8,1.6-7.5c0-1.9-0.2-3.7-0.8-5.4
		C305.4,109,304.6,107.4,303.5,105.9z M263.8,73.4H283c2.2,0,4.2,0.3,5.8,0.8c1.6,0.5,3,1.3,4,2.2c1,0.9,1.8,2,2.3,3.3
		c0.5,1.3,0.7,2.6,0.7,4.1c0,1.6-0.4,3.1-1.1,4.6c-0.7,1.4-1.7,2.7-2.9,3.8c-1.2,1.1-2.7,1.9-4.5,2.6c-1.7,0.6-3.6,0.9-5.7,0.9
		h-17.9V73.4z M297.9,121.6c-1,1.6-2.2,3-3.7,4.1c-1.5,1.1-3.2,1.9-5.1,2.4c-1.9,0.5-3.8,0.8-5.6,0.8h-19.7v-26.7h17
		c2.9,0,5.5,0.4,7.8,1.1c2.3,0.7,4.2,1.7,5.8,2.9c1.6,1.2,2.8,2.7,3.6,4.3c0.8,1.7,1.3,3.4,1.3,5.3C299.3,118,298.8,120,297.9,121.6
		z"/>
	<rect x="314.6" y="66.7" class="st0" width="7.4" height="68.8"/>
	<polygon class="st0" points="330.9,73.4 375.3,73.4 330.9,128.2 330.9,135.5 383.4,135.5 383.4,128.9 339.6,128.9 383.4,75.3 
		383.4,66.7 330.9,66.7 	"/>
	<path class="st0" d="M489.7,66.7l-25.5,68.8h7.6l8-21.9h29.6l8,21.9h7.7l-25.3-68.8H489.7z M481.9,108.1l12.8-34.6l12.7,34.6H481.9
		z"/>
	<path class="st0" d="M574.2,103.4c-1.9-1.4-4-2.6-6.4-3.6c-2.4-1-4.8-1.9-7.3-2.7c-2.5-0.8-4.9-1.6-7.3-2.3
		c-2.4-0.7-4.5-1.6-6.4-2.5c-1.9-0.9-3.4-2-4.5-3.3c-1.1-1.2-1.7-2.8-1.7-4.6c0-1.6,0.4-2.9,1.1-4c0.7-1.1,1.7-2,2.9-2.6
		c1.2-0.7,2.6-1.1,4.1-1.4c1.5-0.3,3.1-0.4,4.6-0.4c1.7,0,3.4,0.2,4.9,0.7c1.5,0.5,2.9,1.2,4.1,2.2c1.2,1,2.2,2.3,2.9,3.8
		c0.8,1.5,1.3,3.4,1.5,5.5h11.9c-0.1-1.6-0.4-3.3-0.8-5c-0.4-1.7-1-3.4-1.8-4.9c-0.8-1.6-1.9-3.1-3.1-4.5c-1.3-1.4-2.8-2.6-4.7-3.7
		c-1.8-1-4-1.9-6.5-2.5c-2.5-0.6-5.3-0.9-8.5-0.9c-3.6,0-6.9,0.4-9.9,1.2c-3,0.8-5.6,1.9-7.8,3.4c-2.2,1.5-3.9,3.3-5.1,5.5
		c-1.2,2.2-1.8,4.8-1.8,7.6c0,2.8,0.6,5.2,1.7,7.2c1.2,2,2.7,3.7,4.5,5.2c1.9,1.4,4,2.7,6.4,3.6c2.4,1,4.8,1.9,7.3,2.7
		c2.5,0.8,4.9,1.5,7.3,2.3c2.4,0.7,4.5,1.6,6.4,2.4c1.9,0.9,3.4,2,4.5,3.2c1.2,1.2,1.7,2.7,1.7,4.5c0,2-0.4,3.6-1.2,5
		c-0.8,1.4-1.9,2.5-3.2,3.3c-1.3,0.8-2.9,1.4-4.6,1.8c-1.7,0.4-3.5,0.6-5.4,0.6c-2.2,0-4.1-0.4-5.9-1.1c-1.8-0.7-3.4-1.8-4.7-3.1
		c-1.3-1.3-2.4-3-3.2-4.8c-0.8-1.9-1.3-3.9-1.4-6.1h-12.1c0.1,3.8,0.9,7.2,2.5,10.2c1.6,3,3.6,5.6,6.2,7.7c2.5,2.1,5.4,3.7,8.7,4.9
		c3.2,1.1,6.6,1.7,10,1.7c3.8,0,7.3-0.4,10.5-1.3c3.2-0.8,6-2.1,8.3-3.8c2.3-1.7,4.2-3.8,5.5-6.3c1.3-2.5,2-5.4,2-8.7
		c0-2.8-0.6-5.1-1.7-7.1C577.6,106.5,576.1,104.8,574.2,103.4z"/>
	<path class="st0" d="M640.4,76.3c-2.7-3-6.1-5.4-10.2-7c-4-1.7-8.6-2.5-13.8-2.5c-5.1,0-9.7,0.8-13.7,2.5c-4,1.7-7.4,4-10.1,7
		c-2.7,3-4.8,6.6-6.2,10.8c-1.4,4.2-2.1,8.8-2.1,13.9c0,5.1,0.7,9.8,2.1,14c1.4,4.2,3.5,7.9,6.2,10.9c2.7,3.1,6.1,5.4,10.1,7.1
		c4,1.7,8.6,2.5,13.7,2.5c5.2,0,9.8-0.8,13.8-2.5c4-1.7,7.4-4.1,10.2-7.1c2.7-3.1,4.8-6.7,6.3-10.9c1.4-4.2,2.1-8.9,2.1-13.9
		c0-5.1-0.7-9.7-2.1-13.9C645.2,82.9,643.1,79.3,640.4,76.3z M635.3,111.5c-1,3.1-2.5,5.8-4.3,8c-1.8,2.2-4,3.8-6.5,5
		c-2.5,1.1-5.2,1.7-8,1.7c-2.9,0-5.6-0.6-8-1.7c-2.5-1.1-4.6-2.8-6.4-5c-1.8-2.2-3.3-4.8-4.3-8c-1-3.1-1.5-6.7-1.5-10.6
		c0-4,0.5-7.5,1.5-10.6c1-3.1,2.5-5.7,4.3-7.8c1.8-2.1,4-3.7,6.4-4.9c2.5-1.1,5.1-1.7,8-1.7c2.9,0,5.5,0.6,8,1.7
		c2.5,1.1,4.7,2.7,6.5,4.9c1.8,2.1,3.3,4.7,4.3,7.8c1.1,3.1,1.6,6.6,1.6,10.6C636.9,104.9,636.4,108.4,635.3,111.5z"/>
	<polygon class="st0" points="654.9,135.5 666.7,135.5 666.7,105.1 698.2,105.1 698.2,95.1 666.7,95.1 666.7,76.6 703.1,76.6 
		703.1,66.7 654.9,66.7 	"/>
	<polygon class="st0" points="710.1,66.7 710.1,76.6 732.1,76.6 732.1,135.5 744,135.5 744,76.6 766,76.6 766,66.7 	"/>
	<path class="st0" d="M236.9,25.2c-58.6,9.1-101.3,25.3-109.3,28.4c0,0,0,0,0,0c-1.9,0.7-3.4,2.5-3.6,4.7c-0.1,0.6,0,1.2,0.1,1.8
		c0.2,1.2,0.8,2.2,1.6,3c0,0,0.1,0.1,0.2,0.1c0.7,0.6,3.2,4.9,5.5,8.4c0.7,1.1,0.9,2.3,0.7,3.4c0,0.2-0.1,0.3-0.1,0.5
		c-0.2,0.7-0.6,1.3-1.1,1.8c-0.1,0.1-0.3,0.3-0.5,0.4c-0.2,0.1-0.3,0.2-0.5,0.4c-3.2,1.9-6.1,3.4-9.4,5.1c-0.9,0.5-1.3,1.6-0.7,2.5
		c13.7,22.3,14.2,35.3,14.2,35.3c-0.1-0.3-0.2-0.6-0.3-0.8c0,0,0,0,0-0.1c0,0,0,0,0-0.1c-1.2-2.6-2.4-5.1-3.6-7.6
		c-4.6-9.2-9.9-17.9-15.7-26.2c-3.5-5-7.3-9.8-11.3-14.4c0,0,0,0,0,0c-0.3-0.3-0.5-0.6-0.8-0.9c0,0,0-0.1-0.1-0.1
		c-1.3-1.3-2.8-2.3-4.6-3c-0.4-0.1-0.8-0.2-1.2-0.3c-0.4-0.1-0.7-0.2-1.1-0.2c-1.4-0.2-2.8-0.1-4,0.2c0,0,0,0,0,0
		c-0.4,0.1-0.9,0.2-1.3,0.4c0,0,0,0,0,0c-11.9,3.5-23.5,7.8-34.7,12.7c0,0,0,0,0,0c-0.1,0-0.2,0.1-0.2,0.1
		C40.9,87,27.6,94.2,15.1,102.4c-0.1,0.1-0.2,0.1-0.3,0.2c-1.8,1.2-3.4,3-4.3,5c-0.4,0.9-0.7,1.9-0.9,3c0,0.2-0.1,0.4-0.1,0.6
		c-1,7.4-1.6,14.9-1.8,22.5c0,1.4,0,2.8,0,4.3v0.2c0,10.3,0.8,20.4,2.3,30.3c0.2,1.2,0.4,2.4,0.6,3.7c0.7,4.3,6,6.1,9.2,3.2
		c2.6-2.3,5.3-4.6,7.9-6.9c19.5-16,41.7-28.9,65.9-37.7c2.2,4.4,4.3,9,6.1,13.7c0.1,0.4,0.3,0.7,0.4,1.1c0,0,0,0,0,0
		c1.3,2.9,3.7,5.2,6.7,6.3c0.9,0.3,1.8,0.5,2.8,0.6c0.1,0,0.2,0,0.2,0h0c1.7,0.1,3.3-0.1,4.8-0.6c0,0,0,0,0.1,0c0,0,0,0,0,0
		c4.2-1.5,8.4-3.2,12.6-4.9c4.7-2,9.4-4,14-6.2c8.6-4.1,15.2-7.5,22.6-12c2.5-1.5,5.7-0.9,7.4,1.5c1.1,1.4,2.2,2.8,3.2,4.2
		c0.4,0.5,0.8,1.1,1.2,1.6c0.2,0.3,0.4,0.6,0.6,0.8c0.4,0.5,0.7,1,1.1,1.5c0,0.1,0.2,0.2,0.3,0.3c0.8,1.8,2.6,3.2,4.8,3.4
		c1.6,0.1,3.2-0.5,4.3-1.5c0.1-0.1,0.1-0.1,0.2-0.2c6.2-6.1,39.8-55.6,54.3-109.6C242.3,27.7,240,24.8,236.9,25.2z M134.4,126.2
		c0,0.1,0,0.1,0,0.2c-0.4,3.9-2.8,7.2-6,9l-0.1,0.1l-5.9,3.2l-4.9,2.7l-4.8,2.6c-0.2,0.1-0.5,0.3-0.7,0.4c-0.1,0-0.1,0.1-0.2,0.1
		c-0.2,0.1-0.3,0.2-0.4,0.3c-0.1,0.1-0.1,0.1-0.2,0.1c-0.2,0.1-0.4,0.3-0.6,0.5c-0.1,0-0.1,0.1-0.2,0.1c-0.1,0.1-0.2,0.1-0.2,0.2
		c-0.1,0.1-0.2,0.1-0.2,0.2c-0.1,0-0.1,0.1-0.1,0.1c-0.1,0.1-0.3,0.3-0.4,0.4c-0.3,0.3-0.5,0.6-0.7,0.9c-0.1,0.1-0.2,0.3-0.3,0.5
		c-0.1,0.1-0.1,0.2-0.2,0.3c-1.3-0.4-2.3-1.1-2.9-1.8c-0.6-0.6-1-1.3-1.4-2l-6.8-15c4.5-1.6,9.1-3,13.8-4.3
		c4.2-1.1,8.4-2.1,12.6-3.1c0,0,0.1,0,0.1,0c0.2-0.1,0.5-0.1,0.7-0.1c0,0,0.1,0,0.1,0c1-0.2,2.1-0.2,3.2-0.1c0.2,0,0.4,0.1,0.7,0.1
		c0.1,0,0.2,0,0.3,0.1c0,0,0,0,0,0c0.2,0,0.4,0.1,0.6,0.1c0,0,0,0,0,0c0.3,0.1,0.5,0.1,0.7,0.2c0,0,0,0,0,0c0.2,0.1,0.5,0.2,0.7,0.3
		c0.2,0.1,0.4,0.2,0.6,0.3c0,0,0.1,0,0.1,0.1c0.2,0.1,0.4,0.2,0.6,0.3c0.3,0.1,0.5,0.3,0.8,0.5c0.2,0.1,0.4,0.3,0.6,0.4
		c0,0,0,0,0.1,0c0,0,0,0,0.1,0.1C134.2,124.8,134.4,125.5,134.4,126.2C134.4,126.2,134.4,126.2,134.4,126.2z"/>
</g>
</svg>
